<svg xmlns="http://www.w3.org/2000/svg" viewBox="0 0 200 200" class="w-8 h-8 mr-2" fill="currentColor">
  <path d="M194,100c0,51.83-42.17,94-94,94S6,151.83,6,100,48.17,6,100,6c7.73,0,14,6.27,14,14s-6.27,14-14,14c-36.39,0-66,29.61-66,66s29.61,66,66,66,66-29.61,66-66c0-1.45.22-2.85.63-4.16.18-.58.41-1.14.66-1.68,1.44-3.13,4-5.64,7.17-7.01.11-.05.23-.09.35-.14,1.61-.64,3.36-1.01,5.2-1.01,6.28,0,11.6,4.14,13.37,9.84.41,1.32.63,2.71.63,4.16ZM72,64c-2.21,0-4,1.79-4,4v64c0,2.21,1.79,4,4,4h12c2.21,0,4-1.79,4-4v-64c0-2.21-1.79-4-4-4h-12ZM112,68v64c0,2.21,1.79,4,4,4h12c2.21,0,4-1.79,4-4v-64c0-2.21-1.79-4-4-4h-12c-2.21,0-4,1.79-4,4Z"/>
</svg>
